# Blender 4.3.2
# www.blender.org
mtllib Nomolun Head.mtl
o characters-Female_1_Idlandgames.png.002
v 0.070300 2.830347 -0.051078
v 0.047745 2.812546 -0.016848
v 0.045774 2.848098 -0.085210
v 0.169356 2.909854 -0.016487
v 0.065615 2.835498 0.075134
v 0.112565 2.920552 -0.097756
v 0.095971 2.927445 0.182952
v 0.095971 3.140987 0.200386
v 0.161356 3.287073 0.086610
v 0.090924 3.269938 0.188764
v 0.185318 3.286936 -0.027193
v 0.094055 3.341738 0.047648
v 0.060639 3.340248 0.081716
v 0.067555 3.344860 0.000117
v 0.095971 2.998652 0.191669
v 0.192350 2.984095 0.068461
v 0.199780 3.020734 -0.056543
v 0.175122 3.148426 0.068766
v 0.202110 3.164017 -0.074407
v 0.202684 3.055351 -0.069904
v 0.188425 3.031007 0.067888
v -0.001381 2.800628 0.006068
v -0.001381 2.860800 -0.109634
v -0.001381 2.830490 0.206066
v -0.001381 2.952857 -0.171979
v -0.001381 2.957293 0.276843
v -0.001381 3.042869 -0.214639
v -0.001381 3.137307 0.253970
v -0.001381 3.175175 -0.215735
v -0.001381 3.251211 0.230722
v -0.001381 3.315673 -0.155768
v -0.001381 3.345891 0.113257
v -0.001381 3.347094 -0.047357
v -0.001381 2.996329 0.241116
v -0.001381 3.081817 -0.217175
v -0.073062 2.830347 -0.051078
v -0.050506 2.812546 -0.016848
v -0.048536 2.848098 -0.085210
v -0.172118 2.909854 -0.016487
v -0.068377 2.835498 0.075134
v -0.115327 2.920552 -0.097756
v -0.098733 2.927445 0.182952
v -0.098733 3.140987 0.200386
v -0.164117 3.287073 0.086610
v -0.093686 3.269938 0.188764
v -0.188079 3.286936 -0.027193
v -0.096817 3.341738 0.047648
v -0.063401 3.340248 0.081716
v -0.070317 3.344860 0.000117
v -0.098733 2.998652 0.191669
v -0.195111 2.984095 0.068461
v -0.202541 3.020734 -0.056543
v -0.177884 3.148426 0.068766
v -0.204871 3.164017 -0.074407
v -0.205445 3.055351 -0.069904
v -0.191186 3.031007 0.067888
v -0.001381 2.800628 0.006068
v -0.001381 2.860800 -0.109634
v -0.001381 2.830490 0.206066
v -0.001381 2.952857 -0.171979
v -0.001381 2.957293 0.276843
v -0.001381 3.042869 -0.214639
v -0.001381 3.137307 0.253970
v -0.001381 3.175175 -0.215735
v -0.001381 3.251211 0.230722
v -0.001381 3.315673 -0.155768
v -0.001381 3.345891 0.113257
v -0.001381 3.347094 -0.047357
v -0.001381 2.996329 0.241116
v -0.001381 3.081817 -0.217175
vn 0.3321 -0.9315 0.1482
vn 0.3456 -0.5014 -0.7932
vn 0.5981 -0.5712 -0.5622
vn 0.6237 -0.7797 0.0550
vn 0.8897 -0.3500 -0.2932
vn 0.7276 -0.6061 0.3212
vn 0.6556 -0.5301 0.5378
vn 0.5447 -0.2558 -0.7987
vn 0.8283 0.0217 0.5599
vn 0.4683 -0.0671 0.8810
vn 0.5772 -0.0107 -0.8165
vn 0.9781 0.0651 0.1978
vn 0.8392 0.0464 0.5418
vn 0.4327 0.1369 0.8911
vn 0.5578 0.3431 -0.7557
vn 0.1999 0.8022 0.5626
vn 0.3218 0.8947 -0.3098
vn 0.5194 0.8545 0.0076
vn 0.4073 0.8103 0.4213
vn 0.0512 0.9982 0.0299
vn 0.5754 -0.1944 -0.7945
vn 0.5993 0.1905 0.7775
vn 0.7866 -0.0164 0.6172
vn 0.9957 0.0276 0.0886
vn 0.9861 0.0630 0.1537
vn 0.3321 0.9315 -0.1482
vn 0.3456 0.5014 0.7932
vn 0.5981 0.5712 0.5622
vn 0.6237 0.7797 -0.0550
vn 0.8897 0.3500 0.2932
vn 0.7276 0.6061 -0.3212
vn 0.6556 0.5301 -0.5378
vn 0.5447 0.2558 0.7987
vn 0.8283 -0.0217 -0.5599
vn 0.4683 0.0671 -0.8810
vn 0.5772 0.0107 0.8165
vn 0.9781 -0.0651 -0.1978
vn 0.8392 -0.0464 -0.5418
vn 0.4327 -0.1369 -0.8911
vn 0.5578 -0.3431 0.7557
vn 0.1999 -0.8022 -0.5626
vn 0.3218 -0.8947 0.3098
vn 0.5194 -0.8545 -0.0076
vn 0.4073 -0.8103 -0.4213
vn 0.0512 -0.9982 -0.0299
vn 0.5754 0.1944 0.7945
vn 0.5993 -0.1905 -0.7775
vn 0.7866 0.0164 -0.6172
vn 0.9957 -0.0276 -0.0886
vn 0.9861 -0.0630 -0.1537
vt 0.702806 0.929305
vt 0.689636 0.934681
vt 0.684608 0.910562
vt 0.702806 0.877518
vt 0.387847 0.692495
vt 0.400429 0.696468
vt 0.401755 0.722007
vt 0.371007 0.711472
vt 0.380827 0.686857
vt 0.354671 0.706061
vt 0.682555 0.942858
vt 0.653168 0.931601
vt 0.236359 0.821650
vt 0.258444 0.823159
vt 0.250645 0.859861
vt 0.217685 0.854092
vt 0.640484 0.906635
vt 0.669168 0.879265
vt 0.952494 0.043526
vt 0.977241 0.022759
vt 0.977241 0.067318
vt 0.966283 0.089180
vt 0.402591 0.757928
vt 0.351841 0.747222
vt 0.189583 0.871155
vt 0.219958 0.872670
vt 0.222238 0.893173
vt 0.190216 0.897128
vt 0.560984 0.924097
vt 0.534098 0.921375
vt 0.535187 0.896374
vt 0.562267 0.899606
vt 0.347164 0.762351
vt 0.402591 0.772892
vt 0.402501 0.787718
vt 0.347342 0.780778
vt 0.258444 0.891794
vt 0.249805 0.920797
vt 0.227356 0.924024
vt 0.205878 0.924361
vt 0.534820 0.865562
vt 0.560644 0.872217
vt 0.401018 0.816812
vt 0.350452 0.806378
vt 0.539442 0.846444
vt 0.556614 0.846618
vt 0.862444 0.954283
vt 0.807447 0.974100
vt 0.813238 0.946454
vt 0.833216 0.938915
vt 0.862444 0.930506
vt 0.842881 0.928834
vt 0.851669 0.904841
vt 0.836997 0.918438
vt 0.823691 0.906759
vt 0.562267 0.943380
vt 0.533008 0.946376
vt 0.503559 0.926590
vt 0.504997 0.908226
vt 0.255268 0.873663
s 1
usemtl IDlandgames
f 22/1/1 2/2/1 5/3/1 24/4/1
f 3/5/2 23/6/2 25/7/2 6/8/2
f 1/9/3 3/5/3 6/8/3 4/10/3
f 2/2/4 1/11/4 4/12/4 5/3/4
f 4/13/5 6/14/5 17/15/5 16/16/5
f 5/3/6 4/12/6 16/17/6 7/18/6
f 24/19/7 5/20/7 7/21/7 26/22/7
f 6/8/8 25/7/8 27/23/8 17/24/8
f 15/25/9 21/26/9 18/27/9 8/28/9
f 34/29/10 15/30/10 8/31/10 28/32/10
f 20/33/11 35/34/11 29/35/11 19/36/11
f 18/27/12 19/37/12 11/38/12 9/39/12
f 8/28/13 18/27/13 9/39/13 10/40/13
f 28/32/14 8/31/14 10/41/14 30/42/14
f 19/36/15 29/35/15 31/43/15 11/44/15
f 30/42/16 10/41/16 13/45/16 32/46/16
f 11/47/17 31/48/17 33/49/17 14/50/17
f 9/51/18 11/47/18 14/50/18 12/52/18
f 10/53/19 9/51/19 12/52/19 13/54/19
f 14/50/20 33/49/20 32/55/20 13/54/20 12/52/20
f 17/24/21 27/23/21 35/34/21 20/33/21
f 26/56/22 7/57/22 15/30/22 34/29/22
f 7/57/23 16/58/23 21/59/23 15/30/23
f 16/16/24 17/15/24 20/60/24 21/26/24
f 21/26/25 20/60/25 19/37/25 18/27/25
f 57/1/26 37/2/26 40/3/26 59/4/26
f 38/5/27 58/6/27 60/7/27 41/8/27
f 36/9/28 38/5/28 41/8/28 39/10/28
f 37/2/29 36/11/29 39/12/29 40/3/29
f 39/13/30 41/14/30 52/15/30 51/16/30
f 40/3/31 39/12/31 51/17/31 42/18/31
f 59/19/32 40/20/32 42/21/32 61/22/32
f 41/8/33 60/7/33 62/23/33 52/24/33
f 50/25/34 56/26/34 53/27/34 43/28/34
f 69/29/35 50/30/35 43/31/35 63/32/35
f 55/33/36 70/34/36 64/35/36 54/36/36
f 53/27/37 54/37/37 46/38/37 44/39/37
f 43/28/38 53/27/38 44/39/38 45/40/38
f 63/32/39 43/31/39 45/41/39 65/42/39
f 54/36/40 64/35/40 66/43/40 46/44/40
f 65/42/41 45/41/41 48/45/41 67/46/41
f 46/47/42 66/48/42 68/49/42 49/50/42
f 44/51/43 46/47/43 49/50/43 47/52/43
f 45/53/44 44/51/44 47/52/44 48/54/44
f 49/50/45 68/49/45 67/55/45 48/54/45 47/52/45
f 52/24/46 62/23/46 70/34/46 55/33/46
f 61/56/47 42/57/47 50/30/47 69/29/47
f 42/57/48 51/58/48 56/59/48 50/30/48
f 51/16/49 52/15/49 55/60/49 56/26/49
f 56/26/50 55/60/50 54/37/50 53/27/50
